<svg width="131" height="44" fill="none" xmlns="http://www.w3.org/2000/svg"><g opacity=".5" fill="#A29BFE"><path d="M129.766 37.066c-1.644 1.68-10.28-3.36-10.28-2.52 0-1.68 10.28-.84 11.514-.84-1.234-2.521-20.972 1.68-21.794-4.201 2.056-1.68 9.458 3.36 9.869 0-.411 0-6.168-2.52-6.168-3.36.411-.84 4.112 0 4.934 0-1.233-1.68-18.093-1.68-18.093-3.36 0-.84 11.925.84 13.57.84-3.701-4.201-47.289-5.041-47.289-5.881 0 3.36 23.028 0 24.261 4.2-1.233 2.52-6.99-2.52-8.635 0 .823 0 4.935 0 4.523 2.52-.41 4.2-4.112-5.04-3.29 0-.822.84-6.579 0-6.99-.84 0 0-10.28-4.2-6.99-.84-7.402 1.68-18.916-6.72-25.906-5.88.822 1.68-7.402 1.68-9.87 1.68-.822 1.68-2.467-.84-2.467-1.68-1.644 0-3.29 3.36-5.345 2.52.41 0 .822-.84.822-.84-1.233-.84-13.159 2.52-13.98-.84.821 0 2.055 0 2.877-.84-.822 0-1.644 0-2.056-.84.823 0 3.701 2.52 4.524.84-.411 0-1.234 0-2.056-.84.822-1.68 18.504-2.52 21.383-.84 2.467-2.52 27.14 5.04 27.962 1.68-2.056-6.72-18.916-2.52-23.028-3.36-6.58 0-13.57 1.68-20.15 1.68-1.644 0-11.924 0-10.69 1.68-3.701 4.2-11.514-5.88-6.991 6.72-10.691 10.921 3.29 8.401 7.813 13.442 4.523 5.04 15.215-.84 20.56 0 7.402.84 14.392 0 21.794.84 12.748.84 25.495.84 38.243 2.52 4.523.84 21.793 5.88 24.261 0 2.467-5.88 12.336 3.36 14.392-2.52 0-.84-.822-.84-1.234-.84zM2.292 30.345h.823c-.412.84-.412.84-.823 0zm41.532-9.24c.411 0 3.29.84 3.29 1.68-1.645 2.52-5.757-2.52-3.29-1.68zm-1.234-3.361c.412 2.52 0 0 0 0 0 .84 0 .84 0 0zm-1.644 0s.41 0 0 0c0 .84 0 .84 0 0zm-1.645 4.2c1.233-.84 2.467-1.68 3.29 0-.823 1.68-5.346 0-3.29 0zm-10.28-3.36c.822 0 0 0 0 0zm-17.271 0l-.411-.84c.41 0 .41 0 .41.84zm-.822-2.52c1.233 0-.823 0 0 0 .41 0-.412 0 0 0zm.822 5.88h-1.234 1.234zm-2.467-5.04c.822 1.68-1.234-3.36 0 0 .41 0 0-.84 0 0zm-4.935 6.72c-.411 0 .823-.84 0 0zm2.056-1.68c-1.233 0-2.056-.84-3.29-1.68 2.057.84 4.524.84 6.58.84-.823.84-2.056 1.68-3.29.84.823 0-.411 0 0 0zm1.234 10.921c2.056 0 4.112 0 5.757.84-2.056-.84-3.701 0-5.757-.84zm9.458 1.68c-.823 0-1.234 0-2.056-.84 6.99-1.68 4.934 1.68 2.056.84zm1.233-10.08c.411-1.68 0 1.68 0 0zm1.234 0c-.411 0 .411 0 0 0zm.411 10.08c1.645-.84 3.29-.84 4.934-.84-1.644 0-3.29.84-4.934.84zm17.682-.84H25.32c.41-1.68 12.336 0 12.336 0 .411 0-3.7 0 0 0zm.411-11.76c-2.467 1.68-25.084 3.36-25.906 0 7.402-5.881 19.327 5.04 25.906 0zm0-.84h.823-.823zm7.813 12.6c-2.467-.84-4.934 1.68-7.402 0h9.047-1.645c.411 0-.411 0 0 0zm5.346-10.92c3.29.84-3.701.84-3.701-.84s4.934.84 3.7.84zm18.504-.84c-.411.84-.411 0-.822 0 .41-.84.41 0 .822 0zm-16.037 0h-.411.411zm12.336 13.44h.823c0 .84-.412.84-.823 0zm1.645.84c0-2.52.822-2.52 3.29.84-.823-.84-2.056-.84-3.29-.84zm4.112 0h1.234c-.823.84-.823.84-1.234 0zm-.411-10.08c-4.934-.84-15.215 1.68-19.327-4.2 4.523-2.521 21.794 0 25.906 5.04-2.056 0-4.112 0-6.58-.84 2.468.84-2.055 0 0 0zm19.327-2.52c0-.84.41.84 0 0 0 0 .41 0 0 0zm.822 0c0-1.68.411.84 0 0 0 0 .411 0 0 0zm.823.84c-.412 0 .41 0 0 0zm.822 0c0-3.36.411 2.52 0 0 0-.84.411.84 0 0zm1.234 0c-.412-.84.41-.84 0 0 0-.84 0-.84 0 0zm.822-2.52c-1.645 0-3.29 0-4.934-.84 1.644-1.681 5.756.84 4.934.84zm1.645 3.36c-2.879 0 0-.84 0 0-.411 0 0 0 0 0zm-.823-3.36c.412-.84.823 0 1.234 0-.411 0-.822.84-1.234 0zm1.645 0c.823-.84 1.645-.84 2.056 0 0 .84-2.056 0-2.056 0 .411.84.411 0 0 0zm1.645 3.36c-.411 0 1.234 0 0 0 0 0 .411 0 0 0zm1.234 0c.411 0 .822-.84 1.233-.84-.411 0-.822.84-1.233.84.411 0 0-.84 0 0zm2.467 3.36c.822-.84 1.234 0 2.056 0-.822.84-1.234.84-2.056 0zm1.645-2.52c-1.234.84-2.468.84-2.879-.84.411-2.52 4.112.84 2.879.84zm4.112 3.36h.411c-.411.84-.411.84-.411 0zm7.813 8.4c-.411-.84.411 0 0 0zm7.401-.84c-.411 0 .412 0 0 0zM13.391 5.143c3.29.84 6.58 0 10.28 0 0 2.52 7.813 0 9.87.84 0-.84.41-.84.822-.84-2.056 0 10.691-5.881 4.934 0 .412 0 5.757 1.68 5.757 0 0 0-3.7.84-3.29-.84 0-1.68 13.982.84 15.215 1.68-.822 1.68-9.869-2.52-9.869 0 0 3.36 68.261 5.88 75.251 8.4.411-3.36-27.962-8.4-28.373-9.24.822-.84 1.645-.84 2.467-.84-1.233-5.881-11.925-.84-14.392-.84-8.224 0-16.448-3.36-24.673-3.36-9.046 0-17.681 0-25.906.84-6.168.84-15.626 5.88-21.382 3.36.822 1.68 2.056 1.68 3.29.84zm65.793 4.2c.823 0-.41 0 0 0zm-1.233 0h-1.645 1.645zm-2.056 0h-.823.823zm-2.468-.84c2.056 0 2.879 3.36-2.467 0h2.468zm-2.878 0c-1.645 0-3.29 0-4.523-.84 1.233 0 2.878.84 4.523.84zm-5.757-.84c1.234-.84 0 0 0 0 .411 0 0 0 0 0zm-.411 0c0 1.68-.411 1.68-1.645 0 .411-.84.823-.84 1.645 0-.822-.84 0 0 0 0zm-5.346-1.68c1.234-.84 2.056-.84 2.879.84-3.29 1.68-4.112.84-2.879-.84zm-.411.84c-.411 0-1.234 0-1.645-.84.411 0 1.234-.84 1.645.84zm-25.495-1.68c.411 0-.822 0 0 0zm-9.046.84c-.412 0-.412 0-.823-.84.411 0 .411 0 .823.84z"/><path d="M121.13 16.904c-7.813-1.68-16.037-3.36-23.85-4.2-3.7 0-11.925-4.2-15.215-.84 1.645 0 3.29 0 4.935.84-1.645 0-16.449 0-16.449-1.68 2.056.84 4.112.84 6.169.84-2.879-.84-5.346-1.68-8.225-1.68 1.645 1.68 2.056.84-.41.84-2.88 0-5.758-.84-8.636-.84-2.879-.84-5.346-1.68-6.58-.84-4.523 1.68-34.13-4.201-34.54 1.68 1.233 1.68 1.644 0 1.644 1.68 1.645 1.68 7.813 0 9.458-.84 1.233-.84 29.607 0 29.607 2.52 0 0 17.27 2.52 16.86 2.52 2.055.84 13.98-.84 13.98.84l-.411.84c1.234 0 8.635 3.36 11.103.84-.412 0-.412-.84-.823-.84 5.757-6.72 18.504 6.72 25.084 1.68-1.234 0-2.056-.84-3.29-.84 1.645-.84 3.29-.84 4.935-.84-2.056-.84-3.701-.84-5.346-1.68zm-98.69-4.2c-.411-.84.411 0 0 0 0-.84 0 0 0 0zm9.047-.84h.822-.822zm6.168-.84c-.822 0 0 0 0 0-.411 0 0 0 0 0zm1.233 0c-.41 0 .412 0 0 0zm3.701.84c-.822.84.412-.84 0 0zm1.645 0c-.822 0 1.234-.84 0 0-.411 0 0 0 0 0zm.823 0c-.412 1.68.41-1.68 0 0zm3.7 0c-.41 0 .823 0 0 0zm2.056.84c-1.233-1.68.412-1.68 0 0-.41 0 0 0 0 0zm2.056-.84c-.41 0 0 0 0 0zm5.346.84c.411 0 .411 0 .411.84l-.41-.84zm5.346.84h.822c-.41.84-.41.84-.822 0zm18.504 3.36c-.822-.84.412 0 0 0-.411 0 0 0 0 0zm5.346-3.36c0-1.68.411-1.68 1.645 0H87.41c.411 0 0 0 0 0zm2.056 0c2.056 0 0 0 0 0 .411 0 .411.84 0 0zm1.234.84c-.823-.84-.412-1.68 2.056 0H90.7zm4.112 4.2h.822-.822zm2.467-4.2c-2.879 2.52-4.112 2.52-4.112-.84 2.878-2.52 4.112-1.68 4.112.84 0 0-1.234 0 0 0zm1.645 5.04c0-.84 0-.84.822 0h-.822zm.411-4.2c-.411-.84.411 0 0 0 0-.84 0 0 0 0zm21.383 5.04c0-.84.411 0 .411 0s-.411-.84-.411 0zM17.505 11.023c-.412 0-3.29-.84-3.29.84.822 1.68 2.878 0 3.29-.84 0 0 0-.84 0 0zM34.77 5.982c-.41 0 3.29 1.68 3.702 0-.412 0-.823 0-.412-.84 1.234.84-10.691 0-3.29.84zm89.652 19.322c1.233 0 3.701.84 4.523 0h-4.523c1.645-.84.411 0 0 0zm-99.927-7.56c2.878 0-4.112-2.52-4.112-.84 0 .84 7.813.84 4.112.84z"/><path d="M81.647 12.703a3.67 3.67 0 00-4.112 0c1.234.84 2.467.84 4.112 0-.411 0-1.233-.84 0 0zm-14.39-1.68c0-2.52-.822-2.52-2.878 0 1.233.84 2.056 1.68 2.878 0zM49.17 7.663h-2.057c.412.84 1.234.84 2.056 0zm5.35 10.081c0 .84 2.878.84 2.467 0-.411-.84-1.234-.84-2.468 0 .412 0 0 0 0 0zm-36.61-.84c1.234.84 1.234.84 1.645 0-.411-.84-.822 0-1.645 0zm-.402-7.561c.822 0 2.056.84 2.878 0-.822-.84-2.056-.84-2.878 0zm20.562 7.561h1.645c-.822-.84-.822-.84-1.645 0zm-9.453 0h-1.644c.41.84 3.29 0 1.645 0zM54.52 9.343h1.644c-.41-.84-1.233-1.68-1.645 0zm24.66 12.601c-.411-.84-1.234-.84-1.645 0 .411-.84.823 0 1.645 0zm-8.634-1.68c-2.467-2.52.411 0 0 0-.411-.84 0 0 0 0zm-52.634-7.561c1.233-1.68-.412.84 0 0zm15.225 4.2c0 3.36 3.29-3.36 0 0 0 0 .41 0 0 0zm12.737-10.92h-1.233c.41 0 .822.84 1.233 0zm-4.113 1.68h-1.234c.412.84.823.84 1.234 0zm-5.745 9.241h1.233c-.822-.84-.822-.84-1.233 0zm44.396 4.2h-.822c0 .84.411.84.822 0zM12.16 6.823c.411.84.823 0 .823 0s-.412-.84-.823 0zm23.433 1.68c-1.233-1.68 2.879-.84 0 0-.411 0 0 0 0 0zm30.84 10.921c-.411 0-.823-.84-1.234 0h1.234zm26.731-.84c.411.84.823 0 1.234 0h-1.234zm-16.852 2.52c-.412-.84-.823 0-1.234 0h1.234zm-34.548-4.2c-.411 0-.411-.84-.823 0 .412.84.823 0 .823 0zm15.209-7.561c.41 0 .41.84.822 0h-.822z"/><path d="M70.547 20.264c.411 0 .411 0 .822-.84-.41 0-.41 0-.822.84zm2.059 0c.41-.84 0 1.68 0 0 0 0 0 .84 0 0zM29.43 12.703c.823-.84-1.644.84 0 0zm33.314 5.881h-.822c.411.84.411.84.822 0zm-48.932-7.561c0-.84-2.056 0 0 0zm24.657-2.52c2.056-.84 0-.84 0 0 .411 0 0 0 0 0zm85.138 5.88c-1.234 0 0 .84 0 0 0 0 0 .84 0 0zm-71.962 2.521c0 .84.41.84.41 0h-.41zm-40.312-5.041l-.411-.84c0 .84.411.84.411.84zm63.742 9.241c.41-.84-.823.84 0 0zm36.598 0c-.411 0 1.234-.84 0 0 0 0 .411-.84 0 0zM38.469 5.143h.411c0-.84-.411-.84-.411 0zm83.069 15.961c-.411.84 0-.84 0 0zm-3.702 0c.411.84.411 0 0 0zm-13.574-1.68c.411 1.68 0 0 0 0 0 .84 0 0 0 0zm-36.168.84c.411.84.411 0 .822 0-.411-.84-.822-.84-.822 0zm-4.945-.84c.822-.84-.411 0 0 0zM30.671 8.503c-.411-.84 0 0 0 0zm7.803 9.241c-.411-.84.411 0 0 0zm76.069 5.88c.411 0 0-.84 0 0zm.418-2.52c.411.84 0 0 0 0 .411 0 0 0 0 0zm9.468-6.721c0-.84-.411.84 0 0z"/><path d="M124.825 14.383c.411.84-.823 0 0 0zm-70.304 2.521c-.411.84.411 0 0 0zM27.794 8.503c-.41 0 .412.84 0 0zm20.961 8.401c.412 0-.41.84 0 0zm-15.629.839c-.412 0 .822.84 0 0 0 0 .41.84 0 0z"/></g></svg>